<?xml version="1.0" encoding="UTF-8" standalone="no"?>
<svg
   xmlns:dc="http://purl.org/dc/elements/1.1/"
   xmlns:cc="http://creativecommons.org/ns#"
   xmlns:rdf="http://www.w3.org/1999/02/22-rdf-syntax-ns#"
   xmlns:svg="http://www.w3.org/2000/svg"
   xmlns="http://www.w3.org/2000/svg"
   xmlns:sodipodi="http://sodipodi.sourceforge.net/DTD/sodipodi-0.dtd"
   xmlns:inkscape="http://www.inkscape.org/namespaces/inkscape"
   width="5.0799999cm"
   height="5.0799999cm"
   viewBox="0 0 50.800001 50.800001"
   version="1.1"
   id="svg8"
   sodipodi:docname="logo.svg"
   inkscape:version="1.0.2 (e86c870879, 2021-01-15)">
  <defs
     id="defs2" />
  <sodipodi:namedview
     id="base"
     pagecolor="#ffffff"
     bordercolor="#666666"
     borderopacity="1.0"
     inkscape:pageopacity="0.0"
     inkscape:pageshadow="2"
     inkscape:zoom="1.979899"
     inkscape:cx="35.792909"
     inkscape:cy="81.920389"
     inkscape:document-units="mm"
     inkscape:current-layer="layer1"
     inkscape:document-rotation="0"
     showgrid="false"
     units="cm"
     inkscape:window-width="1600"
     inkscape:window-height="836"
     inkscape:window-x="0"
     inkscape:window-y="0"
     inkscape:window-maximized="1" />
  <metadata
     id="metadata5">
    <rdf:RDF>
      <cc:Work
         rdf:about="">
        <dc:format>image/svg+xml</dc:format>
        <dc:type
           rdf:resource="http://purl.org/dc/dcmitype/StillImage" />
        <dc:title></dc:title>
      </cc:Work>
    </rdf:RDF>
  </metadata>
  <g
     inkscape:label="Layer 1"
     inkscape:groupmode="layer"
     id="layer1">
    <g
       id="g877"
       transform="translate(0.52916667,-1.0583333)"
       style="stroke:#747474;stroke-opacity:1;stroke-width:1;stroke-miterlimit:4;stroke-dasharray:none">
      <g
         id="g869"
         transform="translate(0,1.0193136)"
         style="stroke:#747474;stroke-opacity:1;stroke-width:1;stroke-miterlimit:4;stroke-dasharray:none">
        <path
           style="fill:none;stroke:#747474;stroke-width:1;stroke-linecap:butt;stroke-linejoin:miter;stroke-miterlimit:4;stroke-dasharray:none;stroke-opacity:1"
           d="M 0.68177878,0.84749348 C 16.874195,0.82544489 33.066612,0.80339631 49.259028,0.78134773 L 49.192882,49.514363 c -16.192416,0.02205 -32.384833,0.0441 -48.57724902,0.06614 z"
           id="path833"
           sodipodi:nodetypes="ccccc" />
        <path
           style="fill:none;stroke:#747474;stroke-width:1;stroke-linecap:butt;stroke-linejoin:miter;stroke-opacity:1;stroke-miterlimit:4;stroke-dasharray:none"
           d="M 16.47066,0.82014421 V 49.463666"
           id="path857" />
        <path
           style="fill:none;stroke:#747474;stroke-width:1;stroke-linecap:butt;stroke-linejoin:miter;stroke-opacity:1;stroke-miterlimit:4;stroke-dasharray:none"
           d="M 33.404004,0.82014421 V 49.463666"
           id="path859" />
      </g>
      <path
         style="fill:none;stroke:#747474;stroke-width:1;stroke-linecap:butt;stroke-linejoin:miter;stroke-opacity:1;stroke-miterlimit:4;stroke-dasharray:none"
         d="M 49.259093,17.733567 H 0.61556613"
         id="path861" />
      <path
         style="fill:none;stroke:#747474;stroke-width:1;stroke-linecap:butt;stroke-linejoin:miter;stroke-opacity:1;stroke-miterlimit:4;stroke-dasharray:none"
         d="M 49.259093,34.666911 H 0.61556618"
         id="path863" />
    </g>
    <path
       style="fill:#000000;stroke-width:0.17915"
       d="m 25.169818,44.550874 c -0.14765,-0.123165 -0.486671,-0.566561 -0.753382,-0.985324 -0.26671,-0.418763 -0.581786,-0.761387 -0.700168,-0.761387 -0.118382,0 -0.586584,0.365758 -1.040447,0.812797 -0.542329,0.534173 -0.922389,0.775504 -1.108707,0.704008 -0.155926,-0.05983 -0.462276,-0.586829 -0.680778,-1.171098 -0.241479,-0.64571 -0.502245,-1.062307 -0.664943,-1.062307 -0.147218,0 -0.652996,0.282856 -1.123952,0.628571 -0.523853,0.384543 -0.967861,0.585754 -1.143689,0.518282 -0.158072,-0.06066 -0.287404,-0.127166 -0.287404,-0.147793 0,-0.454172 -0.444679,-2.195564 -0.582416,-2.280779 -0.10423,-0.06448 -0.660238,0.08691 -1.235574,0.336422 -1.39132,0.603399 -1.655783,0.420892 -1.548063,-1.068324 0.0448,-0.619395 -0.0029,-1.107795 -0.117548,-1.202925 -0.115306,-0.09569 -0.624582,-0.05982 -1.265345,0.08913 -1.433493,0.333228 -1.600816,0.179268 -1.320753,-1.215265 0.29226,-1.45527 0.195627,-1.595872 -1.065525,-1.550363 -1.5778416,0.05694 -1.7560936,-0.177163 -1.1056716,-1.452096 0.547538,-1.073262 0.481539,-1.395817 -0.313512,-1.532232 C 7.0540921,32.8571 6.9479961,32.691231 7.9171411,31.34225 c 0.7633253,-1.062493 0.7330343,-1.137806 -0.686644,-1.707191 -1.262721,-0.506433 -1.3147,-0.905393 -0.233401,-1.791436 0.448804,-0.36776 0.816007,-0.777394 0.816007,-0.910294 0,-0.132903 -0.443396,-0.525277 -0.985324,-0.871944 -0.588816,-0.376661 -0.985324,-0.758542 -0.985324,-0.948975 0,-0.195397 0.381158,-0.546651 0.985324,-0.908018 0.541928,-0.324141 0.985324,-0.691242 0.985324,-0.815778 0,-0.124536 -0.369623,-0.558567 -0.821384,-0.964511 -1.044106,-0.938213 -0.995392,-1.266275 0.262488,-1.767716 0.527573,-0.210312 1.022808,-0.485266 1.100522,-0.61101 0.08731,-0.141264 -0.100057,-0.592131 -0.490326,-1.179919 -0.709729,-1.06893 -0.684025,-1.418311 0.115745,-1.573255 0.302255,-0.05856 0.7968543,-0.154378 1.0991103,-0.212936 0.739682,-0.143302 0.831085,-0.496524 0.372656,-1.440109 -0.211619,-0.435576 -0.384762,-0.907889 -0.384762,-1.049585 0,-0.434979 0.709464,-0.679289 1.6493606,-0.567972 1.070781,0.126818 1.165566,-0.02941 0.880136,-1.450674 -0.284114,-1.414708 -0.104309,-1.575057 1.37833,-1.229181 1.322661,0.308556 1.391916,0.247748 1.313914,-1.153653 -0.07754,-1.3931045 0.196284,-1.6009855 1.432261,-1.0873365 1.405377,0.584048 1.508263,0.544262 1.748352,-0.676091 0.302224,-1.536174 0.521261,-1.640826 1.714373,-0.819098 1.145401,0.788868 1.286767,0.738434 1.780758,-0.635309 0.182129,-0.506484 0.447831,-0.965657 0.590449,-1.020385 0.155997,-0.05986 0.595288,0.231425 1.102623,0.731132 0.463824,0.45685 0.942321,0.830636 1.063326,0.830636 0.121005,0 0.503646,-0.443396 0.850313,-0.985324 0.346668,-0.541928 0.74793,-0.985324 0.891694,-0.985324 0.143766,0 0.555789,0.443396 0.91561,0.985324 0.359819,0.541928 0.740806,0.985324 0.846637,0.985324 0.105831,0 0.571913,-0.373786 1.035737,-0.830636 0.507335,-0.499707 0.946626,-0.790993 1.102623,-0.731132 0.142618,0.05473 0.40832,0.513901 0.590449,1.020385 0.402622,1.119656 0.697248,1.413586 1.11872,1.116079 1.038884,-0.733326 1.86335,-1.141725 2.009615,-0.99546 0.09055,0.09055 0.247643,0.60236 0.349104,1.137364 0.101462,0.535004 0.262998,1.051256 0.358968,1.147227 0.113223,0.113222 0.590432,0.02765 1.359071,-0.2437 1.417285,-0.500344 1.499869,-0.436007 1.503916,1.1716255 0.0014,0.599405 0.04815,1.135234 0.103646,1.19073 0.0555,0.0555 0.594276,-0.01419 1.197287,-0.154867 0.945157,-0.22049 1.131342,-0.220812 1.349815,-0.0023 0.21223,0.212229 0.217382,0.414508 0.03169,1.244249 -0.322157,1.439558 -0.201254,1.626393 0.958672,1.48147 1.63216,-0.203925 1.877145,0.125559 1.172214,1.576521 -0.477829,0.983514 -0.361982,1.31575 0.509708,1.46179 1.80132,0.301786 1.972236,0.561655 1.132148,1.721364 -0.753447,1.040103 -0.66282,1.351099 0.532077,1.825877 1.300423,0.516708 1.353729,0.855529 0.288478,1.833597 -0.470942,0.4324 -0.786228,0.863129 -0.733113,1.001546 0.05126,0.133576 0.495263,0.468878 0.986678,0.745117 1.151515,0.647297 1.20301,1.13739 0.17993,1.712393 -1.370724,0.770389 -1.392437,0.858846 -0.44653,1.819194 1.05517,1.071278 1.011086,1.376258 -0.27347,1.891898 -0.541733,0.217461 -1.01059,0.522367 -1.041902,0.677569 -0.03131,0.155202 0.190385,0.641651 0.492662,1.080994 0.560698,0.81495 0.679279,1.259983 0.3843,1.44229 -0.09091,0.05619 -0.591938,0.183069 -1.113391,0.28196 -0.521454,0.09889 -1.026606,0.258311 -1.122561,0.354265 -0.113183,0.113183 -0.03674,0.506749 0.217642,1.120486 0.443409,1.069804 0.495488,1.559351 0.168168,1.580797 -0.123165,0.0081 -0.687824,0.0023 -1.254798,-0.0127 -1.238621,-0.03289 -1.325136,0.09607 -1.027216,1.531142 0.29421,1.417203 0.101166,1.598966 -1.307516,1.231109 -0.569208,-0.148641 -1.112987,-0.22201 -1.2084,-0.163041 -0.09541,0.05897 -0.173478,0.6166 -0.173478,1.23918 0,1.562929 -0.225666,1.726691 -1.552298,1.126477 -0.554899,-0.251056 -1.114015,-0.416132 -1.24248,-0.366835 -0.128466,0.0493 -0.284529,0.465424 -0.346807,0.924725 -0.241788,1.783211 -0.470793,1.913233 -1.735106,0.985144 -1.074663,-0.788876 -1.259941,-0.723055 -1.809009,0.642644 -0.214895,0.534514 -0.488744,1.003867 -0.608549,1.043005 -0.119806,0.03914 -0.611872,-0.297419 -1.093479,-0.747906 -0.481606,-0.450488 -0.965582,-0.819069 -1.075503,-0.819069 -0.109919,0 -0.483489,0.443396 -0.830157,0.985324 -0.67057,1.048271 -0.771724,1.112825 -1.193029,0.761387 z m 3.208288,-5.434748 c 1.682782,-0.346325 3.041549,-0.907224 3.156273,-1.302907 0.04688,-0.161688 0.181983,-0.80315 0.300229,-1.42547 0.118246,-0.622322 0.354387,-1.303638 0.524757,-1.514037 0.308331,-0.380771 0.316932,-0.381149 1.856564,-0.08162 l 1.5468,0.30092 0.621055,-0.667958 c 0.341581,-0.367376 0.623237,-0.72842 0.625903,-0.80232 0.0027,-0.0739 -1.44008,-0.134362 -3.206104,-0.134362 -3.202587,0 -3.212406,-0.0012 -3.768582,-0.469215 -0.761255,-0.640552 -1.042947,-1.248728 -1.45693,-3.145533 -0.406686,-1.863372 -0.680956,-2.473451 -1.347785,-2.997978 -0.42634,-0.335358 -0.714398,-0.374119 -2.780403,-0.374119 h -2.304788 v 1.343624 1.343624 h 1.881073 1.881074 v 2.149796 2.149798 h -6.001521 c -3.300836,0 -6.001521,0.05707 -6.001521,0.126809 0,0.06974 0.288019,0.421768 0.640043,0.782271 l 0.640042,0.655463 1.223856,-0.268553 c 1.715341,-0.376403 2.07876,-0.248413 2.403952,0.84663 0.144543,0.486727 0.315235,1.234586 0.379316,1.661907 0.112652,0.751219 0.151018,0.790331 1.158435,1.180965 2.39393,0.928267 5.450462,1.172792 8.028262,0.642265 z M 17.5714,37.973053 c 0.67899,-0.750276 0.164931,-1.976586 -0.828568,-1.976586 -0.629421,0 -1.226283,0.566779 -1.226283,1.164475 0,1 1.388275,1.54867 2.054851,0.812111 z m 17.324017,0.05587 c 0.432262,-0.391192 0.416954,-1.226523 -0.03068,-1.674158 -1.036262,-1.036262 -2.540003,0.361458 -1.691766,1.572486 0.338378,0.483103 1.24203,0.536443 1.722446,0.101672 z M 15.695699,24.351726 v -4.657897 h -0.985324 c -0.541929,0 -0.985325,0.07788 -0.985325,0.173072 0,0.09519 0.138449,0.463402 0.307664,0.81825 0.455386,0.954954 0.119777,1.419068 -1.561713,2.159695 l -1.343624,0.591811 0.019,2.025096 c 0.01045,1.113803 0.114329,2.36772 0.230842,2.786483 l 0.211842,0.761386 h 2.053319 2.053318 z m 21.769679,4.370753 c 0.448677,-0.293985 0.800427,-1.208908 0.802206,-2.086592 8.96e-4,-0.464316 0.04739,-0.492663 0.807174,-0.492663 h 0.806174 l -0.0014,-1.298836 -0.0014,-1.298837 -1.432905,-0.610149 C 36.304428,22.023925 36.25765,21.891484 37.276931,19.628266 L 38.050382,17.91089 37.515121,17.066872 C 35.794084,14.353078 32.507959,11.9949 29.267915,11.148538 l -1.207656,-0.315462 -1.126113,1.116103 c -1.45082,1.437925 -1.676476,1.439311 -3.109426,0.0191 l -1.106843,-1.097006 -0.9582,0.223655 c -2.056431,0.479993 -4.948972,2.126848 -6.404314,3.646267 l -0.609067,0.635883 8.133362,0.05336 c 7.554099,0.04956 8.190778,0.07788 8.939536,0.397569 1.949911,0.832535 3.046668,1.987238 3.416582,3.597093 0.331931,1.444559 0.01794,2.245765 -1.458866,3.722572 l -1.234423,1.234423 0.598699,0.567051 c 0.699521,0.662541 1.282899,1.737372 1.462449,2.694446 0.176706,0.941927 0.68736,1.366027 1.644814,1.366027 0.428285,0 0.975905,-0.129216 1.216935,-0.287143 z M 28.194943,22.282314 C 28.787944,21.86696 28.981228,21.4043 28.781362,20.878613 28.463433,20.042398 27.79964,19.872979 24.84124,19.872979 h -2.696145 v 1.343624 1.343624 h 2.826535 c 2.264061,0 2.905494,-0.0553 3.223313,-0.277913 z M 40.28402,21.449913 c 0.4326,-0.500306 0.392376,-0.976907 -0.12622,-1.495503 -0.670926,-0.670926 -1.562481,-0.492936 -1.893627,0.378046 -0.475256,1.250017 1.134952,2.140845 2.019847,1.117457 z m -27.992169,0.03541 c 0.738102,-0.738102 0.185987,-1.970649 -0.882746,-1.970649 -0.525292,0 -1.267053,0.68171 -1.267053,1.164475 0,0.121222 0.167087,0.43282 0.371303,0.692439 0.454281,0.577525 1.262989,0.629242 1.778496,0.113735 z M 26.344959,10.875622 c 0.587562,-0.838863 0.06938,-1.9307865 -0.916273,-1.9307865 -0.997693,0 -1.519579,1.2474215 -0.837301,2.0013295 0.425955,0.470675 1.401991,0.431411 1.753574,-0.07054 z"
       id="path945" />
  </g>
</svg>
